# Blender 4.1.1
# www.blender.org
mtllib artillery battery.mtl
o 円柱.001
v -0.738529 -0.029901 -0.851486
v -0.988529 -0.029901 -0.851486
v -0.738529 0.352782 -0.775366
v -0.988529 0.352782 -0.775366
v -0.738529 0.677206 -0.558593
v -0.988529 0.677206 -0.558593
v -0.738529 0.893978 -0.234170
v -0.988529 0.893978 -0.234170
v -0.738529 0.970099 0.148514
v -0.988530 0.970099 0.148514
v -0.738529 0.893978 0.531197
v -0.988530 0.893978 0.531197
v -0.738529 0.677206 0.855621
v -0.988530 0.677206 0.855621
v -0.738529 0.352782 1.072393
v -0.988530 0.352782 1.072393
v -0.738529 -0.034882 -0.850495
v -0.988529 -0.034882 -0.850495
v -0.738530 -0.024717 1.147483
v -0.988530 -0.025395 1.147618
v -0.988529 -0.034882 -0.477838
v -0.738529 -0.034882 -0.594205
v 0.036471 1.517565 -1.014333
v -0.170780 1.536327 -0.977626
v -0.346479 1.589757 -0.873091
v -0.463877 1.669720 -0.716643
v -0.505102 1.764044 -0.532100
v -0.713529 -0.016820 0.378133
v -0.463877 1.858367 -0.347557
v -0.656439 0.113804 0.633698
v -0.346479 1.938330 -0.191109
v -0.493859 0.224542 0.850356
v -0.170780 1.991760 -0.086574
v -0.250542 0.298534 0.995122
v 0.036471 2.010522 -0.049866
v 0.036471 0.324517 1.045957
v 0.243722 1.991760 -0.086574
v 0.323483 0.298534 0.995122
v 0.419420 1.938330 -0.191109
v 0.566801 0.224542 0.850356
v 0.536819 1.858367 -0.347557
v 0.729380 0.113804 0.633698
v 0.578044 1.764044 -0.532100
v 0.786471 -0.016820 0.378133
v 0.536819 1.669720 -0.716643
v 0.419421 1.589757 -0.873091
v 0.243722 1.536327 -0.977626
v 0.331571 1.563042 -0.925358
v 0.036471 1.422706 -1.199924
v -0.250542 1.448689 -1.149089
v -0.493859 1.522682 -1.004323
v -0.656439 1.633420 -0.787665
v -0.713529 1.764044 -0.532100
v -0.656439 1.894668 -0.276535
v -0.493859 2.005405 -0.059877
v -0.250542 2.079398 0.084889
v 0.036471 2.105381 0.135724
v 0.323483 2.079398 0.084889
v 0.566801 2.005405 -0.059877
v 0.729381 1.894668 -0.276535
v 0.786471 1.764044 -0.532100
v 0.729381 1.633420 -0.787665
v 0.566801 1.522682 -1.004323
v 0.445142 1.485685 -1.076706
v 0.323483 1.448689 -1.149089
v 0.036471 0.571318 -0.530689
v -0.170780 0.590080 -0.493981
v -0.346479 0.643510 -0.389446
v -0.463877 0.723474 -0.232999
v -0.505102 0.817797 -0.048456
v -0.463877 0.912120 0.136087
v -0.346479 0.992083 0.292535
v -0.170780 1.045513 0.397070
v 0.036471 1.064276 0.433778
v 0.243721 1.045513 0.397070
v 0.419420 0.992083 0.292535
v 0.536819 0.912120 0.136087
v 0.578043 0.817797 -0.048456
v 0.536819 0.723474 -0.232998
v 0.419420 0.643510 -0.389446
v 0.331571 0.616795 -0.441714
v 0.243722 0.590080 -0.493981
v 0.036471 -0.031973 -0.456410
v -0.250542 -0.032377 -0.392088
v -0.493859 -0.031973 -0.209710
v -0.656439 -0.030824 0.062960
v -0.708090 -0.029267 0.353782
v 0.782822 -0.025169 0.361798
v 0.729380 -0.027070 0.061042
v 0.566801 -0.029101 -0.211178
v 0.323483 -0.030822 -0.392883
v 0.445142 -0.029961 -0.302031
v 1.061471 -0.029901 -0.851486
v 0.811471 -0.029901 -0.851486
v 1.061471 0.352782 -0.775365
v 0.811471 0.352782 -0.775365
v 1.061471 0.677205 -0.558593
v 0.811471 0.677205 -0.558593
v 1.061470 0.893978 -0.234169
v 0.811471 0.893978 -0.234169
v 1.061470 0.970099 0.148514
v 0.811471 0.970099 0.148514
v 1.061470 0.893978 0.531198
v 0.811471 0.893978 0.531198
v 1.061470 0.677205 0.855621
v 0.811471 0.677205 0.855621
v 1.061470 0.352782 1.072394
v 0.811471 0.352782 1.072394
v 1.061471 -0.031492 -0.851169
v 0.811470 -0.020511 1.146646
v 0.811471 -0.032171 -0.851035
v 1.061470 -0.019832 1.146511
vn -0.0000 -0.1951 -0.9808
vn -0.0000 0.1951 -0.9808
vn -0.0000 0.5556 -0.8315
vn -0.0000 0.8315 -0.5556
vn -0.0000 0.9808 -0.1951
vn -0.0000 0.9808 0.1951
vn -0.0000 0.8315 0.5556
vn -1.0000 -0.0000 -0.0000
vn -0.0000 0.5556 0.8315
vn 1.0000 -0.0000 -0.0000
vn -0.0000 0.1951 0.9808
vn -0.9808 0.0888 0.1737
vn -0.8315 0.2528 0.4947
vn -0.5556 0.3784 0.7404
vn -0.1951 0.4464 0.8733
vn 0.1951 0.4464 0.8733
vn 0.5556 0.3784 0.7404
vn 0.8315 0.2528 0.4947
vn 0.9808 0.0888 0.1737
vn -0.0000 -0.8904 0.4551
vn 0.8315 -0.2528 -0.4947
vn -0.0000 0.8904 -0.4551
vn 0.5556 -0.3784 -0.7404
vn 0.1951 -0.4464 -0.8733
vn -0.1951 -0.4464 -0.8733
vn -0.5556 -0.3784 -0.7404
vn -0.8315 -0.2528 -0.4947
vn -0.9808 -0.0888 -0.1737
vn 0.9808 -0.0888 -0.1737
vn -1.0000 -0.0001 -0.0000
vt 0.500814 1.000000
vt 0.500000 0.500000
vt 0.500814 0.500000
vt 0.500000 1.000000
vt 0.437500 0.500000
vt 0.437500 1.000000
vt 0.375000 0.500000
vt 0.375000 1.000000
vt 0.312500 0.500000
vt 0.312500 1.000000
vt 0.250000 0.500000
vt 0.250000 1.000000
vt 0.187500 0.500000
vt 0.187500 1.000000
vt 0.125000 0.500000
vt 0.248919 0.489785
vt 0.010000 0.250000
vt 0.250000 0.010000
vt 0.125000 1.000000
vt 0.062500 0.500000
vt 0.751196 0.071747
vt 0.580294 0.080294
vt 0.580294 0.419706
vt 0.062500 1.000000
vt 0.000847 0.500000
vt 0.750000 0.500000
vt 0.687500 1.000000
vt 0.687500 0.500000
vt 0.625000 0.500000
vt 0.625000 1.000000
vt 0.562500 0.500000
vt 0.562500 1.000000
vt 0.011168 0.255870
vt 0.158156 0.028269
vt 0.471731 0.158156
vt 0.872544 0.127456
vt 0.910111 0.183680
vt 0.750000 0.423303
vt 0.841844 0.471731
vt 0.816320 0.410111
vt 0.872544 0.372544
vt 0.919706 0.419706
vt 0.971731 0.341844
vt 0.910111 0.316320
vt 0.990000 0.250000
vt 0.923303 0.250000
vt 0.971731 0.158156
vt 0.919706 0.080294
vt 0.841844 0.028269
vt 0.816320 0.089889
vt 0.750000 0.076697
vt 0.750000 0.010000
vt 0.658156 0.028269
vt 0.683680 0.089889
vt 0.627456 0.127456
vt 0.589889 0.183680
vt 0.528269 0.158156
vt 0.576697 0.250000
vt 0.510000 0.250000
vt 0.528269 0.341844
vt 0.589889 0.316320
vt 0.627456 0.372544
vt 0.683680 0.410111
vt 0.619225 0.445718
vt 0.658156 0.471731
vt 0.750000 0.490000
vt 0.655568 0.391328
vt 0.093750 0.500000
vt 0.062500 0.915391
vt 0.093750 0.925537
vt 0.125000 0.935682
vt 0.187500 0.966203
vt 0.812500 0.967257
vt 0.750000 1.000000
vt 0.875000 0.936489
vt 0.812500 0.500000
vt 0.875000 0.500000
vt 0.937500 0.915828
vt 0.937500 0.500000
vt 1.000000 0.908419
vt 1.000000 0.500000
vt 0.000000 0.908419
vt 0.000000 0.500000
vt 0.500260 0.500000
vt 0.080294 0.419706
vt 0.080294 0.080294
vt 0.658156 0.028269
vt 0.001644 0.500000
vt 0.251195 0.010238
vt 0.251195 0.099675
vt 0.158156 0.471731
vt 0.028269 0.341844
vt 0.028269 0.158156
vt 0.158156 0.028269
vt 0.748756 0.489753
vt 0.751196 0.010238
vt 0.000736 1.000000
vt 0.490000 0.250000
vt 0.488259 0.258751
vt 0.028269 0.158156
vt 0.341844 0.028269
vt 0.419706 0.080294
vt 0.246005 1.000000
vt 0.755955 1.000000
vt 0.500371 1.000000
vt 0.250545 0.010108
vt 0.247746 0.489552
vt 0.747583 0.489519
vt 0.750382 0.010076
vt 0.001534 1.000000
s 0
usemtl マテリアル.001
f 18/1/1 1/2/1 17/3/1
f 2/4/2 3/5/2 1/2/2
f 4/6/3 5/7/3 3/5/3
f 6/8/4 7/9/4 5/7/4
f 8/10/5 9/11/5 7/9/5
f 10/12/6 11/13/6 9/11/6
f 12/14/7 13/15/7 11/13/7
f 20/16/8 10/17/8 2/18/8
f 14/19/9 15/20/9 13/15/9
f 22/21/10 5/22/10 13/23/10
f 16/24/11 19/25/11 15/20/11
f 53/26/12 30/27/12 54/28/12
f 30/27/13 55/29/13 54/28/13
f 32/30/14 56/31/14 55/29/14
f 34/32/15 57/2/15 56/31/15
f 36/4/16 58/5/16 57/2/16
f 38/6/17 59/7/17 58/5/17
f 40/8/18 60/9/18 59/7/18
f 42/10/19 61/11/19 60/9/19
f 88/33/20 38/34/20 30/35/20
f 31/36/21 71/37/21 29/37/21
f 23/38/22 50/39/22 24/40/22
f 25/41/22 50/39/22 51/42/22
f 25/41/22 52/43/22 26/44/22
f 26/44/22 53/45/22 27/46/22
f 29/37/22 53/45/22 54/47/22
f 29/37/22 55/48/22 31/36/22
f 31/36/22 56/49/22 33/50/22
f 35/51/22 56/49/22 57/52/22
f 35/51/22 58/53/22 37/54/22
f 37/54/22 59/22/22 39/55/22
f 41/56/22 59/22/22 60/57/22
f 43/58/22 60/57/22 61/59/22
f 43/58/22 62/60/22 45/61/22
f 45/61/22 63/23/22 46/62/22
f 47/63/22 64/64/22 65/65/22
f 23/38/22 65/65/22 49/66/22
f 46/62/22 64/64/22 48/67/22
f 67/40/22 75/54/22 79/61/22
f 46/62/13 79/61/13 45/61/13
f 33/50/23 72/36/23 31/36/23
f 48/67/14 82/63/14 81/67/14
f 35/51/24 73/50/24 33/50/24
f 24/40/16 66/38/16 23/38/16
f 23/38/15 82/63/15 47/63/15
f 37/54/25 74/51/25 35/51/25
f 24/40/17 68/41/17 67/40/17
f 48/67/14 80/62/14 46/62/14
f 37/54/26 76/55/26 75/54/26
f 26/44/18 68/41/18 25/41/18
f 41/56/27 76/55/27 39/55/27
f 26/44/19 70/46/19 69/44/19
f 43/58/28 77/56/28 41/56/28
f 29/37/29 70/46/29 27/46/29
f 43/58/12 79/61/12 78/58/12
f 64/68/23 91/69/23 65/20/23
f 63/15/23 92/70/23 64/68/23
f 62/13/21 90/71/21 63/15/21
f 44/12/29 89/72/29 62/13/29
f 86/73/28 28/74/28 53/26/28
f 85/75/27 52/76/27 51/77/27
f 84/78/26 51/77/26 50/79/26
f 83/80/25 50/79/25 49/81/25
f 65/20/24 83/82/24 49/83/24
f 109/84/1 94/4/1 93/2/1
f 94/4/2 95/5/2 93/2/2
f 96/6/3 97/7/3 95/5/3
f 98/8/4 99/9/4 97/7/4
f 100/10/5 101/11/5 99/9/5
f 102/12/6 103/13/6 101/11/6
f 104/14/7 105/15/7 103/13/7
f 106/85/8 98/86/8 94/18/8
f 106/19/9 107/20/9 105/15/9
f 95/87/10 103/60/10 107/65/10
f 108/24/11 112/88/11 107/20/11
f 18/1/1 2/4/1 1/2/1
f 2/4/2 4/6/2 3/5/2
f 4/6/3 6/8/3 5/7/3
f 6/8/4 8/10/4 7/9/4
f 8/10/5 10/12/5 9/11/5
f 10/12/6 12/14/6 11/13/6
f 12/14/7 14/19/7 13/15/7
f 18/89/30 21/90/30 20/16/30
f 20/16/8 16/91/8 14/85/8
f 14/85/8 12/92/8 10/17/8
f 10/17/8 8/93/8 6/86/8
f 6/86/8 4/94/8 2/18/8
f 2/18/8 18/89/8 20/16/8
f 20/16/8 14/85/8 10/17/8
f 10/17/8 6/86/8 2/18/8
f 14/19/9 16/24/9 15/20/9
f 15/65/10 19/95/10 22/21/10
f 22/21/10 17/96/10 1/52/10
f 1/52/10 3/87/10 5/22/10
f 5/22/10 7/57/10 9/59/10
f 9/59/10 11/60/10 13/23/10
f 13/23/10 15/65/10 22/21/10
f 22/21/10 1/52/10 5/22/10
f 5/22/10 9/59/10 13/23/10
f 16/24/11 20/97/11 19/25/11
f 53/26/12 28/74/12 30/27/12
f 30/27/13 32/30/13 55/29/13
f 32/30/14 34/32/14 56/31/14
f 34/32/15 36/4/15 57/2/15
f 36/4/16 38/6/16 58/5/16
f 38/6/17 40/8/17 59/7/17
f 40/8/18 42/10/18 60/9/18
f 42/10/19 44/12/19 61/11/19
f 28/98/20 87/99/20 88/33/20
f 88/33/20 44/17/20 42/100/20
f 42/100/20 40/86/20 38/34/20
f 38/34/20 36/18/20 34/101/20
f 34/101/20 32/102/20 30/35/20
f 30/35/20 28/98/20 88/33/20
f 88/33/20 42/100/20 38/34/20
f 38/34/20 34/101/20 30/35/20
f 31/36/21 72/36/21 71/37/21
f 23/38/22 49/66/22 50/39/22
f 25/41/22 24/40/22 50/39/22
f 25/41/22 51/42/22 52/43/22
f 26/44/22 52/43/22 53/45/22
f 29/37/22 27/46/22 53/45/22
f 29/37/22 54/47/22 55/48/22
f 31/36/22 55/48/22 56/49/22
f 35/51/22 33/50/22 56/49/22
f 35/51/22 57/52/22 58/53/22
f 37/54/22 58/53/22 59/22/22
f 41/56/22 39/55/22 59/22/22
f 43/58/22 41/56/22 60/57/22
f 43/58/22 61/59/22 62/60/22
f 45/61/22 62/60/22 63/23/22
f 47/63/22 48/67/22 64/64/22
f 23/38/22 47/63/22 65/65/22
f 46/62/22 63/23/22 64/64/22
f 82/63/22 66/38/22 67/40/22
f 67/40/22 68/41/22 69/44/22
f 69/44/22 70/46/22 71/37/22
f 71/37/22 72/36/22 73/50/22
f 73/50/22 74/51/22 75/54/22
f 75/54/22 76/55/22 77/56/22
f 77/56/22 78/58/22 79/61/22
f 79/61/22 80/62/22 81/67/22
f 81/67/22 82/63/22 67/40/22
f 67/40/22 69/44/22 71/37/22
f 71/37/22 73/50/22 75/54/22
f 75/54/22 77/56/22 79/61/22
f 79/61/22 81/67/22 67/40/22
f 67/40/22 71/37/22 75/54/22
f 46/62/13 80/62/13 79/61/13
f 33/50/23 73/50/23 72/36/23
f 48/67/14 47/63/14 82/63/14
f 35/51/24 74/51/24 73/50/24
f 24/40/16 67/40/16 66/38/16
f 23/38/15 66/38/15 82/63/15
f 37/54/25 75/54/25 74/51/25
f 24/40/17 25/41/17 68/41/17
f 48/67/14 81/67/14 80/62/14
f 37/54/26 39/55/26 76/55/26
f 26/44/18 69/44/18 68/41/18
f 41/56/27 77/56/27 76/55/27
f 26/44/19 27/46/19 70/46/19
f 43/58/28 78/58/28 77/56/28
f 29/37/29 71/37/29 70/46/29
f 43/58/12 45/61/12 79/61/12
f 64/68/23 92/70/23 91/69/23
f 63/15/23 90/71/23 92/70/23
f 62/13/21 89/72/21 90/71/21
f 62/13/29 61/11/29 44/12/29
f 44/12/29 88/103/29 89/72/29
f 53/26/28 52/76/28 86/73/28
f 86/73/28 87/104/28 28/74/28
f 85/75/27 86/73/27 52/76/27
f 84/78/26 85/75/26 51/77/26
f 83/80/25 84/78/25 50/79/25
f 65/20/24 91/69/24 83/82/24
f 109/84/1 111/105/1 94/4/1
f 94/4/2 96/6/2 95/5/2
f 96/6/3 98/8/3 97/7/3
f 98/8/4 100/10/4 99/9/4
f 100/10/5 102/12/5 101/11/5
f 102/12/6 104/14/6 103/13/6
f 104/14/7 106/19/7 105/15/7
f 94/18/30 111/106/30 110/107/30
f 110/107/8 108/91/8 106/85/8
f 106/85/8 104/92/8 102/17/8
f 102/17/8 100/93/8 98/86/8
f 98/86/8 96/94/8 94/18/8
f 94/18/8 110/107/8 106/85/8
f 106/85/8 102/17/8 98/86/8
f 106/19/9 108/24/9 107/20/9
f 107/65/10 112/108/10 109/109/10
f 109/109/10 93/52/10 95/87/10
f 95/87/10 97/22/10 99/57/10
f 99/57/10 101/59/10 103/60/10
f 103/60/10 105/23/10 107/65/10
f 107/65/10 109/109/10 95/87/10
f 95/87/10 99/57/10 103/60/10
f 108/24/11 110/110/11 112/88/11
